# xmcd
#
# Track frame offsets:
#	150
#	16365
#	34712
#	49175
#	59452
#	74417
#	99630
#	117700
#	134352
#	148125
#	161472
#	181834
#	195852
#
# Disc length: 2791 seconds
#
# Revision: 0
# Processed by: cddbd v1.5.1PL2 Copyright (c) Steve Scherf et al.
# Submitted via: dBpowerAMP V4.0
#
DISCID=ba0ae50d
DTITLE=Alabama - Alabama Hits, Disc 2
DYEAR=2004
DGENRE=Country
TTITLE0=Close Enough To Perfect
TTITLE1=I Want To Know You Before We Make Love
TTITLE2=Song Of The South
TTITLE3=Hangin' Up My Travelin' Shoes
TTITLE4=She's Got That Look In Her Eyes
TTITLE5=Vacation
TTITLE6=Fallin' Again
TTITLE7=The Maker Said Take Her
TTITLE8=Tennessee River
TTITLE9=Green River
TTITLE10=The Closer You Get
TTITLE11=Keepin' Up
TTITLE12=High Cotton
EXTD=
EXTT0=
EXTT1=
EXTT2=
EXTT3=
EXTT4=
EXTT5=
EXTT6=
EXTT7=
EXTT8=
EXTT9=
EXTT10=
EXTT11=
EXTT12=
PLAYORDER=
